<svg width="300" height="300" viewBox="0 0 300 300" fill="none" xmlns="http://www.w3.org/2000/svg">
    <path d="M20.0962 225C6.93028 202.196 -0.000688122 176.328 5.12265e-08 149.996C0.000688224 123.664 6.933 97.7966 20.1001 74.9932C33.2672 52.1899 52.2051 33.2544 75.0102 20.0903C97.8153 6.92618 123.684 -0.00275553 150.016 8.21806e-07C176.348 0.00275718 202.215 6.93711 225.017 20.106C247.819 33.2749 266.753 52.2143 279.916 75.0204C293.078 97.8265 300.005 123.696 300 150.027C299.995 176.359 293.059 202.226 279.888 225.027L247.416 206.27C257.294 189.169 262.496 169.769 262.5 150.021C262.504 130.272 257.308 110.87 247.437 93.7653C237.565 76.6607 223.364 62.4562 206.263 52.5795C189.161 42.7028 169.761 37.5021 150.012 37.5C130.263 37.4979 110.861 42.6946 93.7576 52.5677C76.6538 62.4408 62.4504 76.6424 52.5751 93.7449C42.6998 110.847 37.5005 130.248 37.5 149.997C37.4995 169.746 42.6977 189.147 52.5721 206.25L20.0962 225Z" fill="#FACC2E" />
</svg>