<svg width="400" height="400" viewBox="0 0 400 400" fill="none" xmlns="http://www.w3.org/2000/svg">
    <path d="M26.7949 300C9.24123 269.596 -2.81799e-05 235.107 0 200C2.818e-05 164.892 9.24134 130.404 26.7951 99.9997C44.3488 69.5959 69.5965 44.3483 100 26.7947C130.404 9.24105 164.893 -0.000117601 200.001 1.12211e-09C235.108 0.000117603 269.597 9.24152 300.001 26.7953C330.405 44.3492 355.652 69.5969 373.206 100.001C390.759 130.405 400 164.894 400 200.001C400 235.109 390.758 269.597 373.204 300.001L340.729 281.251C354.991 256.548 362.5 228.526 362.5 200.001C362.5 171.476 354.992 143.454 340.73 118.751C326.467 94.0475 305.954 73.5337 281.251 59.2712C256.547 45.0087 228.525 37.5001 200.001 37.5C171.476 37.4999 143.454 45.0084 118.75 59.2707C94.0472 73.533 73.5334 94.0466 59.271 118.75C45.0086 143.453 37.5 171.475 37.5 200C37.5 228.525 45.0085 256.547 59.2709 281.25L26.7949 300Z" fill="#FE9A2E" />
</svg>