<svg width="500" height="500" viewBox="0 0 500 500" fill="none" xmlns="http://www.w3.org/2000/svg">
    <path d="M33.4937 375C11.5516 336.995 6.62633e-06 293.884 0 250C-6.62632e-06 206.116 11.5515 163.005 33.4936 125C55.4357 86.9953 86.9951 55.4358 125 33.4937C163.005 11.5516 206.116 2.04023e-05 250 0C293.884 -2.04023e-05 336.995 11.5515 375 33.4936C413.005 55.4356 444.564 86.9951 466.506 125C488.448 163.005 500 206.116 500 250C500 293.884 488.449 336.995 466.506 375L434.03 356.25C452.681 323.946 462.5 287.301 462.5 250C462.5 212.698 452.681 176.054 434.03 143.75C415.38 111.446 388.554 84.6203 356.25 65.9695C323.946 47.3188 287.301 37.5 250 37.5C212.698 37.5 176.054 47.3189 143.75 65.9696C111.446 84.6204 84.6203 111.446 65.9696 143.75C47.3188 176.054 37.5 212.698 37.5 250C37.5 287.302 47.3188 323.946 65.9696 356.25L33.4937 375Z" fill="#FA8258" />
</svg>