<svg width="400" height="400" viewBox="0 0 400 400" fill="none" xmlns="http://www.w3.org/2000/svg">
<path d="M86.7949 360C69.2412 329.596 60 295.107 60 260C60 224.892 69.2414 190.403 86.7952 160C104.349 129.596 129.597 104.348 160.001 86.7946C190.405 69.241 224.894 59.9998 260.001 60C295.108 60.0002 329.597 69.2416 360.001 86.7955C390.405 104.349 415.652 129.597 433.206 160.001C450.759 190.405 460 224.894 460 260.002C460 295.109 450.758 329.598 433.204 360.002L400.728 341.251C414.991 316.548 422.5 288.526 422.5 260.001C422.5 231.477 414.992 203.454 400.73 178.751C386.467 154.048 365.954 133.534 341.251 119.271C316.548 105.009 288.526 97.5001 260.001 97.5C231.476 97.4999 203.454 105.008 178.75 119.271C154.047 133.533 133.534 154.047 119.271 178.75C105.009 203.453 97.5 231.475 97.5 260C97.5 288.525 105.008 316.547 119.271 341.25L86.7949 360Z" fill="url(#paint0_linear)"/>
<defs>
<linearGradient id="paint0_linear" x1="160" y1="86.7949" x2="360" y2="433.205" gradientUnits="userSpaceOnUse">
<stop stop-color="#00D1FF"/>
<stop offset="1" stop-color="#FF3F3F"/>
</linearGradient>
</defs>
</svg>
