<svg width="300" height="300" viewBox="0 0 300 300" fill="none" xmlns="http://www.w3.org/2000/svg">
<path d="M75.0962 280C61.9303 257.196 54.9993 231.328 55 204.996C55.0007 178.664 61.933 152.797 75.1001 129.993C88.2672 107.19 107.205 88.2544 130.01 75.0903C152.815 61.9262 178.684 54.9972 205.016 55C231.348 55.0028 257.215 61.9371 280.017 75.106C302.819 88.2749 321.753 107.214 334.916 130.02C348.078 152.827 355.005 178.696 355 205.028C354.995 231.359 348.059 257.226 334.888 280.027L302.416 261.27C312.294 244.169 317.496 224.77 317.5 205.021C317.504 185.272 312.308 165.87 302.437 148.765C292.565 131.661 278.365 117.456 261.263 107.58C244.161 97.7028 224.761 92.5021 205.012 92.5C185.263 92.4979 165.861 97.6946 148.758 107.568C131.654 117.441 117.45 131.642 107.575 148.745C97.6998 165.847 92.5005 185.248 92.5 204.997C92.4995 224.746 97.6977 244.147 107.572 261.25L75.0962 280Z" fill="url(#paint0_linear)"/>
<defs>
<linearGradient id="paint0_linear" x1="280" y1="334.904" x2="130" y2="75.0962" gradientUnits="userSpaceOnUse">
<stop stop-color="#FF3F3F"/>
<stop offset="1" stop-color="#00D1FF"/>
</linearGradient>
</defs>
</svg>
